name D:\school\WTK\thesis\model\3dpredictsim\Results\MidTarsalJoint\Fal_s1_bCst_PF_Natali2010_ls148_MT_k100_MTP_T10_ig24.mot
datacolumns 128
datarows 4
range 1.76013647 1.79533920
endheader
time	pelvis_tilt	pelvis_list	pelvis_rotation	pelvis_tx	pelvis_ty	pelvis_tz	hip_flexion_l	hip_adduction_l	hip_rotation_l	hip_flexion_r	hip_adduction_r	hip_rotation_r	knee_angle_l	knee_angle_r	ankle_angle_l	ankle_angle_r	subtalar_angle_l	subtalar_angle_r	mtj_angle_l	mtj_angle_r	mtp_angle_l	mtp_angle_r	lumbar_extension	lumbar_bending	lumbar_rotation	arm_flex_l	arm_add_l	arm_rot_l	arm_flex_r	arm_add_r	arm_rot_r	elbow_flex_l	elbow_flex_r	pro_sup_l	pro_sup_r	glut_med1_l/activation	glut_med2_l/activation	glut_med3_l/activation	glut_min1_l/activation	glut_min2_l/activation	glut_min3_l/activation	semimem_l/activation	semiten_l/activation	bifemlh_l/activation	bifemsh_l/activation	sar_l/activation	add_long_l/activation	add_brev_l/activation	add_mag1_l/activation	add_mag2_l/activation	add_mag3_l/activation	tfl_l/activation	pect_l/activation	grac_l/activation	glut_max1_l/activation	glut_max2_l/activation	glut_max3_l/activation	iliacus_l/activation	psoas_l/activation	quad_fem_l/activation	gem_l/activation	peri_l/activation	rect_fem_l/activation	vas_med_l/activation	vas_int_l/activation	vas_lat_l/activation	med_gas_l/activation	lat_gas_l/activation	soleus_l/activation	tib_post_l/activation	flex_dig_l/activation	flex_hal_l/activation	tib_ant_l/activation	per_brev_l/activation	per_long_l/activation	per_tert_l/activation	ext_dig_l/activation	ext_hal_l/activation	ercspn_l/activation	intobl_l/activation	extobl_l/activation	glut_med1_r/activation	glut_med2_r/activation	glut_med3_r/activation	glut_min1_r/activation	glut_min2_r/activation	glut_min3_r/activation	semimem_r/activation	semiten_r/activation	bifemlh_r/activation	bifemsh_r/activation	sar_r/activation	add_long_r/activation	add_brev_r/activation	add_mag1_r/activation	add_mag2_r/activation	add_mag3_r/activation	tfl_r/activation	pect_r/activation	grac_r/activation	glut_max1_r/activation	glut_max2_r/activation	glut_max3_r/activation	iliacus_r/activation	psoas_r/activation	quad_fem_r/activation	gem_r/activation	peri_r/activation	rect_fem_r/activation	vas_med_r/activation	vas_int_r/activation	vas_lat_r/activation	med_gas_r/activation	lat_gas_r/activation	soleus_r/activation	tib_post_r/activation	flex_dig_r/activation	flex_hal_r/activation	tib_ant_r/activation	per_brev_r/activation	per_long_r/activation	per_tert_r/activation	ext_dig_r/activation	ext_hal_r/activation	ercspn_r/activation	intobl_r/activation	extobl_r/activation	
          1.76013647	         -2.92844281	          2.38900375	         -6.07448036	          2.20017059	          0.91895548	          0.00190583	         28.94332525	          3.48331354	         -2.68078860	        -16.22618816	         -1.50517878	          7.45282025	         -9.23971485	        -10.24106673	          5.39386433	         -4.80758050	         -4.39036890	         10.06799577	         -0.80038509	          7.57558662	          1.46523518	          8.59430680	         -1.89079557	         -0.48136792	          2.37870242	         -5.99367276	        -13.45960776	          5.92675127	          4.62471403	        -13.45398768	         16.02141875	         16.80956458	         38.11609270	         86.51662706	         86.51662706	          0.05977851	          0.05977849	          0.05000049	          0.05977867	          0.05977864	          0.05009192	          0.21673299	          0.09783236	          0.13916743	          0.08484769	          0.05000055	          0.15046242	          0.26472575	          0.25381109	          0.22412667	          0.11166647	          0.05000025	          0.05006783	          0.15661218	          0.05002332	          0.07069185	          0.16594292	          0.05751703	          0.05000119	          0.21859641	          0.31451001	          0.14401609	          0.05000052	          0.10402472	          0.10274172	          0.09201407	          0.07402149	          0.07583248	          0.06400750	          0.05000011	          0.05000116	          0.05000090	          0.46680075	          0.25358138	          0.16669389	          0.12302567	          0.47548066	          0.22123051	          0.05077447	          0.12173523	          0.10215715	          0.22962772	          0.10215744	          0.06825888	          0.26496109	          0.18803816	          0.10341126	          0.05000236	          0.05000041	          0.05000027	          0.05000085	          0.11088669	          0.07215138	          0.07146547	          0.05000265	          0.05000372	          0.05000109	          0.30164726	          0.08134942	          0.05000354	          0.05000220	          0.05000140	          0.05000127	          0.42793531	          0.61842706	          0.05000035	          0.05000099	          0.05000209	          0.31983701	          0.05000142	          0.05000141	          0.05000131	          0.26271356	          0.35593675	          0.34075655	          0.23813074	          0.20601736	          0.27845721	          0.05000006	          0.05977892	          0.12335933	          0.05000037	          0.05000010	          0.05000038	          0.05000004	          0.05000025	          0.06073637	
          1.77187071	         -2.93017550	          2.45862975	         -6.35269931	          2.21812655	          0.91804178	          0.00172674	         28.25917930	          3.87693563	         -2.43710675	        -16.22262511	         -1.82469322	          7.29221031	         -9.70422767	        -11.91670796	          4.71849266	         -5.33740584	         -4.76577894	         11.17054693	         -0.91273625	          6.11911210	          1.45395535	         10.84959965	         -1.67253807	         -0.66131877	          2.45854946	         -6.93946344	        -13.45002236	          5.79473408	          4.28383648	        -13.46555418	         16.34989092	         16.39634415	         39.31481069	         86.51662706	         86.51662706	          0.05000004	          0.05000013	          0.11070326	          0.05000017	          0.05000018	          0.05000022	          0.18128016	          0.08182914	          0.11640258	          0.07096859	          0.05977923	          0.12585017	          0.32739652	          0.32705256	          0.21371024	          0.11192620	          0.05000097	          0.07149182	          0.15127019	          0.05000669	          0.10725540	          0.14419671	          0.05000044	          0.05012232	          0.55237049	          0.26306275	          0.12045818	          0.05977890	          0.08723093	          0.09104372	          0.07704038	          0.07106363	          0.07146924	          0.06230410	          0.05977846	          0.05000910	          0.05977752	          0.48167989	          0.29423372	          0.21047754	          0.10290147	          0.40383351	          0.18504192	          0.05000002	          0.10182187	          0.08544636	          0.19206549	          0.08544672	          0.05837874	          0.22161919	          0.15727918	          0.08649546	          0.05000810	          0.05000278	          0.05000377	          0.05000056	          0.09274848	          0.14815639	          0.05977694	          0.05977891	          0.05977816	          0.05977868	          0.25230426	          0.06804409	          0.05012311	          0.05013200	          0.05031929	          0.05977781	          0.35793418	          0.58603508	          0.05978147	          0.05979385	          0.05001972	          0.26751834	          0.12964660	          0.13251815	          0.14806373	          0.21973906	          0.29771291	          0.28501585	          0.19917765	          0.17231768	          0.23290784	          0.05000014	          0.05000057	          0.13827991	          0.05000046	          0.05000022	          0.05000062	          0.06030396	          0.07061621	          0.07146959	
          1.78360496	         -2.92695364	          2.53281044	         -6.59366909	          2.23642062	          0.91709965	          0.00158043	         27.45445514	          4.14824648	         -2.16721601	        -16.18560094	         -2.14327238	          7.12274837	        -10.25683304	        -13.63146121	          4.13707549	         -5.95359653	         -5.15864697	         12.22389097	         -1.10043052	          4.42357555	          1.49915649	         13.25387015	         -1.43184321	         -0.85573490	          2.52429148	         -7.91207232	        -13.45276944	          5.72938259	          3.85355313	        -13.47379721	         16.59197051	         16.03065239	         40.49774370	         86.51662706	         86.51662706	          0.24694777	          0.25645020	          0.29492412	          0.41444511	          0.26333259	          0.20755851	          0.15162777	          0.06861055	          0.09874357	          0.05978194	          0.05000171	          0.10526376	          0.27384131	          0.27355374	          0.17875226	          0.13182821	          0.05000077	          0.05979817	          0.12652606	          0.05000178	          0.13269797	          0.12062202	          0.05000667	          0.05000067	          0.46201415	          0.22003131	          0.21114801	          0.05000041	          0.07296211	          0.07615123	          0.06443848	          0.05943914	          0.05977843	          0.05211247	          0.05000019	          0.05000064	          0.05000081	          0.54947076	          0.33651403	          0.17604805	          0.38092363	          0.49904342	          0.15477441	          0.06052050	          0.12109145	          0.07146912	          0.32894110	          0.07146961	          0.05265585	          0.30213786	          0.13155209	          0.07234681	          0.05000270	          0.05000033	          0.05000026	          0.05000159	          0.07775917	          0.12392117	          0.05000046	          0.05000068	          0.05000105	          0.05000062	          0.21471319	          0.05691634	          0.05000185	          0.05000486	          0.05000234	          0.05000118	          0.29938398	          0.56187420	          0.05000268	          0.05001374	          0.05000296	          0.22375791	          0.10843933	          0.11084116	          0.12384377	          0.18379429	          0.24901326	          0.23839315	          0.16659637	          0.14413029	          0.19480910	          0.06299182	          0.09664765	          0.15713560	          0.05000078	          0.09820097	          0.05000159	          0.05509945	          0.05906487	          0.05977867	
          1.79533920	         -2.92118990	          2.60291292	         -6.79361057	          2.25479779	          0.91618572	          0.00140727	         26.62614955	          4.38674932	         -1.90069745	        -16.05819347	         -2.44897449	          6.96921334	        -10.77878595	        -15.46085693	          3.57088249	         -6.67187426	         -5.55290512	         13.23195671	         -0.99832268	          2.58185018	          1.53319928	         15.64344871	         -1.19640831	         -1.05377727	          2.57877520	         -8.85659103	        -13.45832422	          5.73163062	          3.37909444	        -13.48914044	         16.77721504	         15.68629924	         41.63887153	         86.51662706	         86.51662706	          0.35055511	          0.35221585	          0.37641430	          0.34665069	          0.22025786	          0.21287544	          0.12682500	          0.08089815	          0.08600682	          0.05000360	          0.05000207	          0.08804484	          0.22904661	          0.22880638	          0.14951315	          0.16293503	          0.05000070	          0.05001712	          0.10582948	          0.22038447	          0.19319932	          0.16236479	          0.05000012	          0.05000016	          0.38643828	          0.18403887	          0.17660905	          0.05000017	          0.10970706	          0.11770948	          0.08807346	          0.05000006	          0.05000015	          0.05000002	          0.05000005	          0.05000025	          0.05000021	          0.61449967	          0.31229859	          0.16608464	          0.58016082	          0.54380439	          0.28874045	          0.07565816	          0.10128340	          0.05977828	          0.27513359	          0.05977876	          0.05000025	          0.25271468	          0.11003304	          0.06051248	          0.05000355	          0.05000041	          0.05000042	          0.05000026	          0.06503976	          0.12829343	          0.10386956	          0.05045411	          0.05004196	          0.06466777	          0.17959077	          0.05980061	          0.05000173	          0.05000533	          0.05000373	          0.05000314	          0.25041102	          0.50545991	          0.05000050	          0.05000177	          0.05000045	          0.18715576	          0.12213620	          0.12213601	          0.11151182	          0.15372935	          0.20827986	          0.19939695	          0.13934471	          0.12055376	          0.16294253	          0.12833465	          0.13307301	          0.14282142	          0.07100110	          0.16092931	          0.05003454	          0.07390600	          0.05000004	          0.05000017	
